<svg width="14" height="15" viewBox="0 0 14 15" fill="none" xmlns="http://www.w3.org/2000/svg">
<path d="M7 10.4653L10.5 6.26526H3.5L7 10.4653Z" fill="#343A40"/>
<path d="M7 0.665222C3.1402 0.665222 0 3.80542 0 7.66522C0 11.525 3.1402 14.6652 7 14.6652C10.8598 14.6652 14 11.525 14 7.66522C14 3.80542 10.8598 0.665222 7 0.665222ZM7 13.2652C3.9123 13.2652 1.4 10.7529 1.4 7.66522C1.4 4.57752 3.9123 2.06522 7 2.06522C10.0877 2.06522 12.6 4.57752 12.6 7.66522C12.6 10.7529 10.0877 13.2652 7 13.2652Z" fill="#343A40"/>
</svg>
