<svg width="45" height="45" viewBox="0 0 45 45" fill="none" xmlns="http://www.w3.org/2000/svg">
<path d="M22.5 0C34.9412 0 45 10.0588 45 22.5C45 34.9412 34.9412 45 22.5 45C10.0588 45 0 34.9412 0 22.5C0 10.0588 10.0588 0 22.5 0ZM22.5 42.3529C33.4853 42.3529 42.3529 33.4853 42.3529 22.5C42.3529 11.5147 33.4853 2.64706 22.5 2.64706C11.5147 2.64706 2.64706 11.5147 2.64706 22.5C2.64706 33.4853 11.5147 42.3529 22.5 42.3529Z" fill="#5F6F52"/>
<path d="M22.1032 9.66166L34.9414 22.4999L22.1032 35.3381L20.2502 33.4852L31.2355 22.4999L20.2502 11.5146L22.1032 9.66166Z" fill="#5F6F52"/>
<path d="M33.0879 23.8235L10.5879 23.8235V21.1764L33.0879 21.1764V23.8235Z" fill="#5F6F52"/>
</svg>
