<svg width="45" height="45" viewBox="0 0 45 45" fill="none" xmlns="http://www.w3.org/2000/svg">
<g opacity="0.5">
<path d="M22.5 45C10.0588 45 0 34.9412 0 22.5C0 10.0588 10.0588 0 22.5 0C34.9412 0 45 10.0588 45 22.5C45 34.9412 34.9412 45 22.5 45ZM22.5 2.64706C11.5147 2.64706 2.64706 11.5147 2.64706 22.5C2.64706 33.4853 11.5147 42.3529 22.5 42.3529C33.4853 42.3529 42.3529 33.4853 42.3529 22.5C42.3529 11.5147 33.4853 2.64706 22.5 2.64706Z" fill="#5F6F52"/>
<path d="M22.8968 35.3383L10.0586 22.5001L22.8968 9.66187L24.7498 11.5148L13.7645 22.5001L24.7498 33.4854L22.8968 35.3383Z" fill="#5F6F52"/>
<path d="M11.9121 21.1765H34.4121V23.8236H11.9121V21.1765Z" fill="#5F6F52"/>
</g>
</svg>
