<svg width="84" height="84" viewBox="0 0 84 84" fill="none" xmlns="http://www.w3.org/2000/svg">
<path d="M2 69.9276C2 63.2602 7.40507 57.8551 14.0724 57.8551C20.7398 57.8551 26.1449 63.2602 26.1449 69.9276C26.1449 76.5949 20.7398 82 14.0724 82C7.40507 82 2 76.5949 2 69.9276Z" stroke="#5F6F52" stroke-width="3" stroke-miterlimit="10" stroke-linecap="round" stroke-linejoin="round"/>
<path d="M2 69.9276V14.0724C2 7.40505 7.40507 1.99998 14.0724 1.99998C20.7398 1.99998 26.1449 7.40505 26.1449 14.0724V69.9276" stroke="#5F6F52" stroke-width="3" stroke-miterlimit="10" stroke-linecap="round" stroke-linejoin="round"/>
<path d="M6.8291 69.9276C6.8291 65.9271 10.0721 62.6841 14.0726 62.6841C18.073 62.6841 21.316 65.9271 21.316 69.9276C21.316 73.928 18.073 77.171 14.0726 77.171C10.0721 77.171 6.8291 73.928 6.8291 69.9276Z" stroke="#5F6F52" stroke-width="3" stroke-miterlimit="10" stroke-linecap="round" stroke-linejoin="round"/>
<path d="M11.6577 69.9276C11.6577 68.5941 12.7388 67.5131 14.0722 67.5131C15.4056 67.5131 16.4867 68.5941 16.4867 69.9276C16.4867 71.261 15.4056 72.342 14.0722 72.342C12.7388 72.342 11.6577 71.261 11.6577 69.9276Z" stroke="#5F6F52" stroke-width="3" stroke-miterlimit="10" stroke-linecap="round" stroke-linejoin="round"/>
<path d="M63.94 70.3646L81.6414 16.3293C81.874 15.6192 81.9998 14.8605 81.9998 14.0724C81.9998 10.0721 78.7569 6.82897 74.7564 6.82897C72.0134 6.82897 69.6264 8.35364 68.3969 10.6018L47.8751 48.1972C57.2095 48.1972 64.7765 55.7642 64.7765 65.0986C64.7765 74.433 57.2095 82 47.8751 82H14.0723" stroke="#5F6F52" stroke-width="3" stroke-miterlimit="10" stroke-linecap="round" stroke-linejoin="round"/>
</svg>
