<svg width="21" height="22" viewBox="0 0 21 22" fill="none" xmlns="http://www.w3.org/2000/svg">
<path d="M11.4881 0.914856C12.2482 0.911939 13.0084 0.919579 13.7683 0.937773L13.9704 0.945064C14.2037 0.953398 14.4339 0.963814 14.7121 0.976314C15.8204 1.0284 16.5766 1.2034 17.2402 1.46069C17.9277 1.72527 18.5069 2.08361 19.086 2.66277C19.6156 3.1832 20.0254 3.81272 20.2871 4.50756C20.5444 5.17111 20.7194 5.9284 20.7714 7.03673C20.7839 7.31381 20.7943 7.54506 20.8027 7.7784L20.8089 7.98048C20.8274 8.74006 20.8354 9.49985 20.8329 10.2596L20.8339 11.0367V12.4013C20.8365 13.1615 20.8285 13.9216 20.81 14.6815L20.8037 14.8836C20.7954 15.1169 20.785 15.3471 20.7725 15.6253C20.7204 16.7336 20.5433 17.4899 20.2871 18.1534C20.0263 18.849 19.6163 19.479 19.086 19.9992C18.5651 20.5287 17.9353 20.9386 17.2402 21.2003C16.5766 21.4576 15.8204 21.6326 14.7121 21.6846C14.4339 21.6971 14.2037 21.7076 13.9704 21.7159L13.7683 21.7221C13.0084 21.7407 12.2482 21.7487 11.4881 21.7461L10.711 21.7471H9.34748C8.58733 21.7497 7.82719 21.7417 7.06727 21.7232L6.86518 21.7169C6.6179 21.708 6.37068 21.6976 6.12352 21.6857C5.01518 21.6336 4.25893 21.4565 3.59435 21.2003C2.89923 20.9392 2.2696 20.5293 1.74956 19.9992C1.2194 19.4787 0.809168 18.8488 0.547476 18.1534C0.290184 17.4899 0.115184 16.7336 0.063101 15.6253C0.0514998 15.3781 0.0410831 15.1309 0.031851 14.8836L0.0266428 14.6815C0.00743821 13.9216 -0.00124328 13.1615 0.000601042 12.4013V10.2596C-0.00230621 9.49986 0.00533349 8.74006 0.0235178 7.98048L0.0308094 7.7784C0.0391428 7.54506 0.0495594 7.31381 0.0620594 7.03673C0.114143 5.92736 0.289143 5.17215 0.546434 4.50756C0.808281 3.81238 1.21931 3.18303 1.7506 2.66381C2.27028 2.13335 2.89952 1.72274 3.59435 1.46069C4.25893 1.2034 5.01414 1.0284 6.12352 0.976314L6.86518 0.945064L7.06727 0.939856C7.82683 0.920661 8.58663 0.91198 9.34643 0.913814L11.4881 0.914856ZM10.4173 6.12215C9.03593 6.12215 7.71117 6.67088 6.73442 7.64763C5.75767 8.62438 5.20893 9.94915 5.20893 11.3305C5.20893 12.7118 5.75767 14.0366 6.73442 15.0133C7.71117 15.9901 9.03593 16.5388 10.4173 16.5388C11.7986 16.5388 13.1234 15.9901 14.1001 15.0133C15.0769 14.0366 15.6256 12.7118 15.6256 11.3305C15.6256 9.94915 15.0769 8.62438 14.1001 7.64763C13.1234 6.67088 11.7986 6.12215 10.4173 6.12215ZM10.4173 8.20548C10.8276 8.20541 11.234 8.28618 11.6132 8.44316C11.9924 8.60014 12.3369 8.83027 12.6271 9.1204C12.9174 9.41054 13.1476 9.755 13.3047 10.1341C13.4618 10.5132 13.5427 10.9196 13.5428 11.33C13.5429 11.7403 13.4621 12.1467 13.3051 12.5259C13.1481 12.9051 12.918 13.2496 12.6279 13.5398C12.3377 13.8301 11.9933 14.0603 11.6142 14.2174C11.235 14.3745 10.8287 14.4554 10.4183 14.4555C9.58951 14.4555 8.79465 14.1262 8.2086 13.5402C7.62255 12.9541 7.29331 12.1593 7.29331 11.3305C7.29331 10.5017 7.62255 9.70682 8.2086 9.12077C8.79465 8.53472 9.58951 8.20548 10.4183 8.20548M15.8871 4.55965C15.551 4.5731 15.2332 4.71605 15.0002 4.95858C14.7672 5.2011 14.637 5.52437 14.637 5.86069C14.637 6.19701 14.7672 6.52028 15.0002 6.7628C15.2332 7.00532 15.551 7.14828 15.8871 7.16173C16.2324 7.16173 16.5636 7.02455 16.8078 6.78036C17.052 6.53617 17.1891 6.20498 17.1891 5.85965C17.1891 5.51431 17.052 5.18312 16.8078 4.93894C16.5636 4.69475 16.2324 4.55756 15.8871 4.55756" fill="#5F6F52"/>
</svg>
