<svg width="20" height="21" viewBox="0 0 20 21" fill="none" xmlns="http://www.w3.org/2000/svg">
<path d="M9.96094 0.869507C7.99085 0.869507 6.06501 1.45371 4.42694 2.54823C2.78887 3.64275 1.51216 5.19844 0.758236 7.01856C0.00431575 8.83868 -0.192944 10.8415 0.191401 12.7737C0.575746 14.706 1.52443 16.4808 2.9175 17.8739C4.31056 19.267 6.08543 20.2156 8.01766 20.6C9.94989 20.9843 11.9527 20.7871 13.7728 20.0332C15.593 19.2792 17.1486 18.0025 18.2432 16.3644C19.3377 14.7264 19.9219 12.8005 19.9219 10.8304C19.9188 8.18959 18.8683 5.65779 17.001 3.79042C15.1336 1.92306 12.6018 0.872608 9.96094 0.869507ZM9.96094 19.6195C8.22263 19.6195 6.52335 19.104 5.078 18.1383C3.63265 17.1725 2.50613 15.7999 1.84091 14.1939C1.17568 12.5879 1.00163 10.8207 1.34076 9.11578C1.67989 7.41087 2.51696 5.84481 3.74614 4.61564C4.97531 3.38647 6.54137 2.54939 8.24628 2.21026C9.95119 1.87113 11.7184 2.04519 13.3244 2.71041C14.9304 3.37563 16.303 4.50215 17.2688 5.9475C18.2345 7.39286 18.75 9.09213 18.75 10.8304C18.7474 13.1607 17.8206 15.3947 16.1729 17.0424C14.5252 18.6901 12.2912 19.6169 9.96094 19.6195ZM12.7188 10.4164C12.8285 10.5262 12.8901 10.6752 12.8901 10.8304C12.8901 10.9857 12.8285 11.1346 12.7188 11.2445L8.8125 15.1508C8.70143 15.2543 8.55452 15.3106 8.40272 15.3079C8.25092 15.3052 8.10609 15.2438 7.99874 15.1364C7.89138 15.029 7.82989 14.8842 7.82721 14.7324C7.82453 14.5806 7.88088 14.4337 7.98438 14.3226L11.4756 10.8304L7.98438 7.33826C7.88088 7.22718 7.82453 7.08027 7.82721 6.92847C7.82989 6.77668 7.89138 6.63184 7.99874 6.52449C8.10609 6.41714 8.25092 6.35564 8.40272 6.35296C8.55452 6.35029 8.70143 6.40663 8.8125 6.51013L12.7188 10.4164Z" fill="#212529"/>
</svg>
