<svg width="22" height="17" viewBox="0 0 22 17" fill="none" xmlns="http://www.w3.org/2000/svg">
<path fill-rule="evenodd" clip-rule="evenodd" d="M11.0011 -0.00292969C11.8918 -0.00292969 12.8053 0.0199871 13.6907 0.0574871L14.7366 0.107487L15.7376 0.166862L16.6751 0.230404L17.5313 0.29707C18.4606 0.368193 19.3349 0.764723 20.0006 1.4169C20.6664 2.06908 21.0807 2.93513 21.1709 3.8627L21.2126 4.3054L21.2907 5.25332C21.3636 6.23561 21.4178 7.30645 21.4178 8.3304C21.4178 9.35436 21.3636 10.4252 21.2907 11.4075L21.2126 12.3554C21.1991 12.5075 21.1855 12.6544 21.1709 12.7981C21.0807 13.7258 20.6662 14.592 20.0002 15.2442C19.3343 15.8964 18.4597 16.2928 17.5303 16.3637L16.6761 16.4294L15.7386 16.4939L14.7366 16.5533L13.6907 16.6033C12.7947 16.6423 11.898 16.6624 11.0011 16.6637C10.1043 16.6624 9.20756 16.6423 8.31156 16.6033L7.26572 16.5533L6.26468 16.4939L5.32718 16.4294L4.47093 16.3637C3.54171 16.2926 2.66734 15.8961 2.00163 15.2439C1.33592 14.5917 0.921529 13.7257 0.831348 12.7981L0.789681 12.3554L0.711556 11.4075C0.631908 10.3837 0.589519 9.3573 0.584473 8.3304C0.584473 7.30645 0.638639 6.23561 0.711556 5.25332L0.789681 4.3054C0.803223 4.15332 0.816764 4.00644 0.831348 3.8627C0.921494 2.9353 1.33574 2.06938 2.00123 1.41722C2.66673 0.765061 3.54086 0.368427 4.46989 0.29707L5.3251 0.230404L6.2626 0.166862L7.26468 0.107487L8.31051 0.0574871C9.20687 0.018563 10.1039 -0.00158043 11.0011 -0.00292969ZM8.91781 5.80436V10.8564C8.91781 11.3377 9.43864 11.6377 9.85531 11.3981L14.2303 8.87207C14.3255 8.81727 14.4046 8.73835 14.4596 8.64325C14.5146 8.54816 14.5435 8.44025 14.5435 8.3304C14.5435 8.22056 14.5146 8.11265 14.4596 8.01756C14.4046 7.92246 14.3255 7.84354 14.2303 7.78874L9.85531 5.26374C9.76026 5.20886 9.65245 5.17999 9.54271 5.18C9.43296 5.18002 9.32516 5.20893 9.23013 5.26384C9.13511 5.31874 9.05622 5.3977 9.00139 5.49276C8.94656 5.58783 8.91774 5.69566 8.91781 5.8054" fill="#5F6F52"/>
</svg>
